<svg width="30" height="22" viewBox="0 0 30 22" fill="none" xmlns="http://www.w3.org/2000/svg">
<path d="M30 2.06897V19.7845C30 20.9289 29.0754 21.8535 27.931 21.8535H2.06897C0.924569 21.8535 0 20.9289 0 19.7845V2.06897C0 0.924569 0.924569 0 2.06897 0H27.931C29.0754 0 30 0.924569 30 2.06897Z" fill="#FE4F60"/>
<path d="M30 2.06897V3.67241C30 4.28017 29.4828 4.7069 29.0172 4.7069C18.1552 5.24354 9.67241 11.7478 6.12284 21.1875C5.97414 21.5884 5.58621 21.8599 5.15302 21.8599H2.06897C0.924569 21.8599 0 20.9353 0 19.791V2.06897C0 0.924569 0.924569 0 2.06897 0H27.931C29.0754 0 30 0.924569 30 2.06897Z" fill="#FF6D7A"/>
<path d="M26.8491 14.0345H22.5172C22.2328 14.0345 22 13.8017 22 13.5172C22 13.2328 22.2328 13 22.5172 13H26.8491C27.1336 13 27.3664 13.2328 27.3664 13.5172C27.3664 13.8017 27.1336 14.0345 26.8491 14.0345ZM26.8491 17.2672H22.5172C22.2328 17.2672 22 17.0345 22 16.75C22 16.4655 22.2328 16.2328 22.5172 16.2328H26.8491C27.1336 16.2328 27.3664 16.4655 27.3664 16.75C27.3664 17.0345 27.1336 17.2672 26.8491 17.2672Z" fill="white"/>
<path d="M8.82142 11.3938C8.78944 10.8633 8.61034 10.3558 8.30775 9.93819C8.03597 9.55362 7.64812 9.28564 7.2125 9.18145C7.6462 9.00038 8.00792 8.65992 8.23489 8.21915C8.46187 7.77838 8.53978 7.26511 8.4551 6.7684C8.37043 6.27169 8.12851 5.82289 7.77132 5.49987C7.41414 5.17685 6.96423 5 6.49967 5C6.0351 5 5.58519 5.17685 5.22801 5.49987C4.87083 5.82289 4.62891 6.27169 4.54423 6.7684C4.45955 7.26511 4.53746 7.77838 4.76444 8.21915C4.99142 8.65992 5.35313 9.00038 5.78683 9.18145C5.35124 9.28565 4.96342 9.55362 4.69167 9.93819C4.38905 10.3558 4.20992 10.8633 4.17792 11.3938L4.07292 12.9319C4.03347 13.5096 4.4915 14 5.07059 14H7.92913C8.50833 14 8.96639 13.5095 8.92679 12.9316L8.82142 11.3938Z" fill="white"/>
</svg>
