<svg width="20" height="20" viewBox="0 0 20 20" fill="none" xmlns="http://www.w3.org/2000/svg">
<path d="M2.74602 13.0908C3.07151 13.4162 3.59911 13.4161 3.92449 13.0906C4.24987 12.7651 4.24979 12.2375 3.9243 11.9121L2.01214 10.0006L4.9027 7.11006C6.64748 5.36528 9.12439 4.65437 11.4947 5.1538C11.9451 5.24868 12.387 4.96053 12.4819 4.51019C12.5768 4.05986 12.2886 3.61788 11.8383 3.523C8.9224 2.90865 5.87153 3.78424 3.72419 5.93159L0.244308 9.41146C-0.0811495 9.73692 -0.0811104 10.2646 0.244425 10.59L2.74602 13.0908Z" fill="#B8B8B8"/>
<path d="M19.7562 9.41048L17.2546 6.90975C16.9291 6.58437 16.4015 6.58445 16.0761 6.90995C15.7507 7.23544 15.7508 7.76304 16.0763 8.08842L17.9885 9.99992L15.0979 12.8905C13.3531 14.6353 10.8762 15.3462 8.50587 14.8467C8.05554 14.7519 7.61356 15.04 7.51868 15.4903C7.4238 15.9407 7.71195 16.3827 8.16229 16.4775C11.0782 17.0919 14.1291 16.2163 16.2764 14.069L19.7563 10.5891C20.0818 10.2636 20.0817 9.73586 19.7562 9.41048Z" fill="#B8B8B8"/>
<path d="M5.83386 10.0002C5.83386 10.4605 6.20694 10.8335 6.66715 10.8335C7.12737 10.8335 7.50044 10.4605 7.50044 10.0002C7.50044 8.6197 8.61982 7.50032 10.0004 7.50032C10.4606 7.50032 10.8336 7.12725 10.8336 6.66703C10.8336 6.20681 10.4606 5.83374 10.0004 5.83374C7.69938 5.8337 5.83386 7.69922 5.83386 10.0002Z" fill="#B8B8B8"/>
<path d="M12.5002 10.0002C12.5002 11.3807 11.3808 12.5001 10.0003 12.5001C9.54007 12.5001 9.16699 12.8732 9.16699 13.3334C9.16699 13.7936 9.54007 14.1667 10.0003 14.1667C12.3013 14.1667 14.1668 12.3012 14.1668 10.0002C14.1668 9.53994 13.7937 9.16687 13.3335 9.16687C12.8733 9.16687 12.5002 9.53998 12.5002 10.0002Z" fill="#B8B8B8"/>
<path d="M19.7552 0.244064C19.4298 -0.0813546 18.9022 -0.0813546 18.5767 0.244064L0.244064 18.5767C-0.0813546 18.9022 -0.0813546 19.4298 0.244064 19.7552C0.569482 20.0806 1.09712 20.0806 1.42254 19.7552L19.7552 1.42254C20.0807 1.09712 20.0807 0.569482 19.7552 0.244064Z" fill="#B8B8B8"/>
</svg>
