<svg width="371" height="34" viewBox="0 0 371 34" fill="none" xmlns="http://www.w3.org/2000/svg">
<rect x="52" y="13.5" width="98.0907" height="6" rx="3" fill="#EFF0F7"/>
<rect x="52" y="13.5" width="49.045" height="6" rx="3" fill="#ED5B61"/>
<rect x="220.09" y="13.5" width="98.0907" height="6" rx="3" fill="#EFF0F7"/>
<circle cx="17" cy="17" r="17" fill="#ED5B61"/>
<path d="M15.44 13.7431C16.0587 13.4978 16.6773 13.1831 17.296 12.7991C17.9253 12.4151 18.48 11.9618 18.96 11.4391H20.32V22.5271H18.384V14.0311C18.096 14.2551 17.7333 14.4738 17.296 14.6871C16.8587 14.9004 16.4373 15.0764 16.032 15.2151L15.44 13.7431Z" fill="white"/>
<circle cx="185.09" cy="17" r="17" fill="#EFF0F7"/>
<path d="M188.562 13.2711C188.562 13.6551 188.482 14.0284 188.322 14.3911C188.173 14.7431 187.97 15.0951 187.714 15.4471C187.458 15.7884 187.17 16.1298 186.85 16.4711C186.53 16.8018 186.21 17.1271 185.89 17.4471C185.709 17.6284 185.495 17.8418 185.25 18.0871C185.015 18.3324 184.791 18.5884 184.578 18.8551C184.365 19.1218 184.183 19.3778 184.034 19.6231C183.895 19.8684 183.826 20.0818 183.826 20.2631H188.93V21.5271H182.21C182.199 21.4631 182.194 21.3991 182.194 21.3351C182.194 21.2711 182.194 21.2124 182.194 21.1591C182.194 20.6578 182.274 20.1938 182.434 19.7671C182.605 19.3298 182.823 18.9191 183.09 18.5351C183.357 18.1511 183.655 17.7884 183.986 17.4471C184.317 17.1058 184.642 16.7751 184.962 16.4551C185.229 16.1991 185.479 15.9484 185.714 15.7031C185.959 15.4471 186.173 15.1964 186.354 14.9511C186.546 14.6951 186.695 14.4338 186.802 14.1671C186.919 13.9004 186.978 13.6178 186.978 13.3191C186.978 12.9991 186.925 12.7271 186.818 12.5031C186.722 12.2791 186.589 12.0924 186.418 11.9431C186.247 11.7938 186.045 11.6871 185.81 11.6231C185.586 11.5484 185.346 11.5111 185.09 11.5111C184.781 11.5111 184.498 11.5538 184.242 11.6391C183.986 11.7244 183.757 11.8258 183.554 11.9431C183.351 12.0498 183.181 12.1671 183.042 12.2951C182.903 12.4124 182.797 12.5031 182.722 12.5671L181.986 11.5111C182.082 11.4044 182.226 11.2764 182.418 11.1271C182.61 10.9671 182.839 10.8178 183.106 10.6791C183.373 10.5404 183.671 10.4231 184.002 10.3271C184.333 10.2311 184.69 10.1831 185.074 10.1831C186.237 10.1831 187.106 10.4551 187.682 10.9991C188.269 11.5324 188.562 12.2898 188.562 13.2711Z" fill="#6F6C90"/>
<circle cx="353.18" cy="17" r="17" fill="#EFF0F7"/>
<path d="M351.796 20.4391C352.745 20.4391 353.422 20.2524 353.828 19.8791C354.244 19.5058 354.452 19.0044 354.452 18.3751C354.452 17.9698 354.366 17.6284 354.196 17.3511C354.025 17.0738 353.801 16.8551 353.524 16.6951C353.246 16.5244 352.921 16.4071 352.548 16.3431C352.185 16.2684 351.812 16.2311 351.428 16.2311H351.044V15.0151H351.572C351.838 15.0151 352.11 14.9884 352.388 14.9351C352.676 14.8818 352.937 14.7858 353.172 14.6471C353.406 14.5084 353.598 14.3218 353.748 14.0871C353.897 13.8418 353.972 13.5378 353.972 13.1751C353.972 12.8764 353.918 12.6204 353.812 12.4071C353.705 12.1938 353.561 12.0178 353.38 11.8791C353.209 11.7404 353.006 11.6444 352.772 11.5911C352.548 11.5271 352.308 11.4951 352.052 11.4951C351.54 11.4951 351.102 11.5698 350.74 11.7191C350.388 11.8684 350.089 12.0231 349.844 12.1831L349.268 11.0471C349.396 10.9618 349.556 10.8711 349.748 10.7751C349.95 10.6684 350.174 10.5724 350.42 10.4871C350.665 10.4018 350.926 10.3324 351.204 10.2791C351.492 10.2151 351.79 10.1831 352.1 10.1831C352.686 10.1831 353.193 10.2578 353.62 10.4071C354.046 10.5458 354.398 10.7484 354.676 11.0151C354.953 11.2711 355.161 11.5804 355.3 11.9431C355.438 12.2951 355.508 12.6791 355.508 13.0951C355.508 13.6711 355.342 14.1671 355.012 14.5831C354.681 14.9884 354.281 15.2978 353.812 15.5111C354.1 15.5964 354.377 15.7191 354.644 15.8791C354.91 16.0391 355.14 16.2418 355.332 16.4871C355.534 16.7324 355.694 17.0151 355.812 17.3351C355.94 17.6551 356.004 18.0124 356.004 18.4071C356.004 18.8871 355.918 19.3351 355.748 19.7511C355.588 20.1564 355.332 20.5084 354.98 20.8071C354.638 21.1058 354.206 21.3404 353.684 21.5111C353.161 21.6818 352.542 21.7671 351.828 21.7671C351.55 21.7671 351.262 21.7458 350.964 21.7031C350.676 21.6604 350.404 21.6071 350.148 21.5431C349.892 21.4791 349.668 21.4151 349.476 21.3511C349.284 21.2871 349.145 21.2338 349.06 21.1911L349.348 19.8951C349.529 19.9804 349.828 20.0924 350.244 20.2311C350.67 20.3698 351.188 20.4391 351.796 20.4391Z" fill="#6F6C90"/>
</svg>
