<svg width="7" height="12" viewBox="0 0 7 12" fill="none" xmlns="http://www.w3.org/2000/svg">
<path d="M7.00001 5.575C7.00001 5.44167 6.97501 5.31267 6.92501 5.188C6.87501 5.06267 6.80835 4.95833 6.72501 4.875L2.12501 0.275C1.94168 0.0916663 1.70834 0 1.42501 0C1.14168 0 0.908345 0.0916663 0.725012 0.275C0.541678 0.458333 0.450012 0.691667 0.450012 0.975C0.450012 1.25833 0.541678 1.49167 0.725012 1.675L4.62501 5.575L0.725012 9.475C0.541678 9.65833 0.450012 9.89167 0.450012 10.175C0.450012 10.4583 0.541678 10.6917 0.725012 10.875C0.908345 11.0583 1.14168 11.15 1.42501 11.15C1.70834 11.15 1.94168 11.0583 2.12501 10.875L6.72501 6.275C6.82501 6.175 6.89568 6.06667 6.93701 5.95C6.97901 5.83333 7.00001 5.70833 7.00001 5.575Z" fill="#ED5B61"/>
</svg>
