<svg width="7" height="12" viewBox="0 0 7 12" fill="none" xmlns="http://www.w3.org/2000/svg">
<path d="M-1.23978e-05 5.575C-1.23978e-05 5.44167 0.0249884 5.31267 0.0749884 5.188C0.124988 5.06267 0.191655 4.95833 0.274988 4.875L4.87499 0.275C5.05832 0.0916663 5.29166 0 5.57499 0C5.85832 0 6.09165 0.0916663 6.27499 0.275C6.45832 0.458333 6.54999 0.691667 6.54999 0.975C6.54999 1.25833 6.45832 1.49167 6.27499 1.675L2.37499 5.575L6.27499 9.475C6.45832 9.65833 6.54999 9.89167 6.54999 10.175C6.54999 10.4583 6.45832 10.6917 6.27499 10.875C6.09165 11.0583 5.85832 11.15 5.57499 11.15C5.29166 11.15 5.05832 11.0583 4.87499 10.875L0.274988 6.275C0.174988 6.175 0.104322 6.06667 0.0629883 5.95C0.0209883 5.83333 -1.23978e-05 5.70833 -1.23978e-05 5.575Z" fill="#1A1A1A"/>
</svg>
